<?xml version="1.0" encoding="UTF-8"?>
<svg id="Layer_1" xmlns="http://www.w3.org/2000/svg" viewBox="0 0 680 220">
  <defs>
    <style>
      .cls-1 {
        fill: #fff;
        stroke: #000;
        stroke-miterlimit: 10;
        stroke-width: 3px;
      }
    </style>
  </defs>
  <path class="cls-1" d="M268.31,74.87c-.03,1.19-.64,2.1-1.83,2.72-1.19.62-2.4.94-3.62.94-1.6,0-3.21-.36-4.82-1.09-1.62-.73-3.38-1.73-5.3-3.01-1.02-.68-2.27-1.58-3.75-2.7s-3.23-2.48-5.24-4.08c-.5-.39-1.46-1.14-2.88-2.28-1.43-1.13-3.32-2.65-5.68-4.55-4.71-3.78-7.38-5.78-7.99-6.02-.96-.33-2.49-.49-4.58-.49-.44,0-1.14.02-2.12.07-.98.04-2.23.13-3.78.25-1.08-.74-1.62-2.1-1.62-4.06,0-1.67.57-2.66,1.7-2.99.15-.03.39-.07.72-.11.33-.04.72-.09,1.16-.13s.91-.09,1.42-.13c.51-.04,1.03-.1,1.55-.16,3.9-.62,7.35-1.72,10.35-3.3,1.08-.56,2.14-1.17,3.19-1.81,1.05-.64,2.11-1.32,3.19-2.03,2.12-1.46,4.02-3.08,5.68-4.86,1.69-1.75,2.53-3.48,2.53-5.18.03-1.25-.33-2.45-1.07-3.59-.74-1.14-1.69-2.18-2.84-3.1-1.15-.92-2.41-1.72-3.78-2.39-1.37-.67-2.65-1.18-3.84-1.54-2.15-.62-4.37-.94-6.64-.94-.67,0-1.46.03-2.38.09-.92.06-1.96.15-3.12.27-1.14.12-2.2.24-3.21.36-1,.12-1.93.25-2.77.4-.84.15-1.75.31-2.73.49-.98.18-2.02.39-3.12.62.67,1.1,1.25,2.83,1.75,5.18.49,2.35.74,4.27.74,5.76,0,.89-.02,1.76-.07,2.59-.04.83-.09,1.64-.15,2.41-.06.77-.14,1.56-.24,2.36-.1.8-.23,1.62-.37,2.45-.26,1.67-.61,3.76-1.05,6.29-.76,4.4-1.28,7.85-1.57,10.35-.15,1.28-.26,2.51-.35,3.7-.09,1.19-.13,2.35-.13,3.48,0,2.02.17,3.83.52,5.42.35,1.59,1.02,3.19,2.01,4.8-.41.62-.99,1.17-1.75,1.63-.76.46-1.48.69-2.18.69-1.95,0-3.38-.4-4.28-1.2-.93-.86-1.5-1.92-1.7-3.17-.2-1.22-.31-3.03-.31-5.44,0-1.52.09-3.11.26-4.77.17-1.67.38-3.19.61-4.57.23-1.38.48-2.83.74-4.35.15-.68.29-1.52.44-2.52.15-1,.32-2.15.52-3.46.41-2.62.73-5.13.98-7.54.25-2.41.37-4.57.37-6.47s-.06-3.69-.17-5.62c-.12-1.93-.29-3.96-.52-6.07-3.2.95-4.99,1.43-5.37,1.43-.9,0-1.5-.28-1.79-.85-.29-.56-.44-1.34-.44-2.32,0-1.13,1.03-2.22,3.1-3.26,1.05-.51,2.09-.97,3.12-1.38,1.03-.42,2.06-.79,3.08-1.12,2.36-.77,5.47-1.44,9.34-2.01,3.87-.62,7.1-.94,9.69-.94,4.42,0,8.72.54,12.88,1.61,4.1,1.01,7.61,2.87,10.52,5.58,2.88,2.68,4.32,6.26,4.32,10.75,0,2.86-1.05,5.62-3.14,8.3-2.1,2.65-4.56,4.95-7.4,6.92s-5.92,3.84-9.23,5.62c1.92,1.34,4.54,3.21,7.86,5.62,1.66,1.19,3.22,2.31,4.67,3.35,1.45,1.04,2.81,2.02,4.06,2.94,1.28.89,2.69,1.88,4.23,2.97,1.54,1.09,3.24,2.27,5.11,3.55,1.86,1.28,3.5,2.39,4.91,3.32,1.41.94,2.61,1.72,3.6,2.34Z"/>
  <path class="cls-1" d="M335.06,40.82c0,1.01-.28,2.09-.85,3.23-.57,1.15-1.2,2.19-1.9,3.15-1.83,2.53-3.75,4.84-5.74,6.94-1.99,2.1-4.01,4.08-6.05,5.96-2.12,1.96-4.24,3.5-6.35,4.6-2.11,1.1-4.01,1.65-5.7,1.65-.73,0-1.45-.18-2.16-.54-.71-.36-1.38-.83-2.01-1.41-.63-.58-1.18-1.26-1.66-2.03-.48-.77-.85-1.58-1.11-2.41-.15-.45-.28-.96-.39-1.54-.12-.58-.23-1.12-.35-1.61-.12-.49-.25-.91-.39-1.25-.15-.34-.31-.51-.48-.51-.12,0-.36.19-.74.58s-.82.89-1.33,1.49c-.51.61-1.06,1.29-1.64,2.05-.58.76-1.16,1.49-1.72,2.21s-1.08,1.37-1.53,1.96c-.45.6-.81,1.04-1.07,1.34-.9,1.04-1.97,2.1-3.21,3.19-1.24,1.09-2.47,2.07-3.71,2.97-1.24.89-2.37,1.62-3.41,2.19-1.03.57-1.8.85-2.29.85-1.11,0-2.18-.19-3.21-.56-1.03-.37-1.94-.91-2.73-1.63s-1.42-1.59-1.9-2.63c-.48-1.04-.72-2.23-.72-3.57,0-2.2.43-4.71,1.29-7.54.86-2.83,1.99-5.7,3.41-8.61,1.41-2.91,3.03-5.72,4.87-8.41,1.83-2.69,3.74-5,5.72-6.94,2.3-2.23,4.71-3.87,7.22-4.93,2.52-1.06,5.1-1.58,7.75-1.58.49,0,.92.1,1.29.31.36.21.68.48.94.8.26.33.49.69.7,1.09.2.4.41.81.61,1.23.12.27.36.57.74.89.38.33.77.66,1.18,1,.41.34.76.68,1.07,1,.31.33.46.64.46.94,0,.62-.12,1.32-.37,2.07-.25.76-.52,1.64-.81,2.63-.29,1-.56,2.13-.81,3.39-.25,1.26-.37,2.72-.37,4.35,0,1.07.09,2.29.28,3.66.19,1.37.48,2.67.87,3.9.39,1.23.89,2.27,1.51,3.1.61.83,1.32,1.25,2.14,1.25.99,0,1.98-.29,2.97-.87.99-.58,2.12-1.39,3.41-2.43,2.85-2.32,5.56-4.86,8.12-7.63,2.56-2.77,5.18-5.52,7.86-8.25.46-.48.9-.71,1.31-.71.67,0,1,.54,1,1.61ZM300.92,35.69c0-.06-.04-.22-.13-.49s-.22-.54-.39-.83c-.17-.28-.39-.54-.63-.76-.25-.22-.52-.33-.81-.33h-.09c-1.08.12-2.23.48-3.45,1.09-1.22.61-2.52,1.55-3.89,2.81-1.37,1.26-2.81,2.89-4.32,4.89-1.51,1.99-3.09,4.42-4.71,7.27-.5.86-1.04,1.81-1.64,2.83-.6,1.03-1.16,2.16-1.7,3.39-.54,1.23-.99,2.55-1.35,3.95-.36,1.4-.55,2.87-.55,4.42,0,.92.33,1.62.98,2.1.65.48,1.33.71,2.03.71s1.67-.41,2.84-1.23c1.16-.82,2.42-1.9,3.78-3.26,1.35-1.35,2.73-2.9,4.15-4.64,1.41-1.74,2.72-3.53,3.93-5.38,1.21-1.84,2.25-3.66,3.14-5.44.89-1.78,1.49-3.41,1.81-4.86.09-.45.19-.97.31-1.58.12-.61.22-1.22.33-1.83.1-.61.19-1.17.26-1.7.07-.52.11-.9.11-1.14Z"/>
  <path class="cls-1" d="M393.07,56.17c0,.42-.15.89-.46,1.41-.31.52-.72,1.05-1.24,1.58s-1.13,1.06-1.81,1.58c-.68.52-1.39.97-2.12,1.36-1.69.89-3.41,1.52-5.17,1.87-1.76.36-3.51.49-5.26.4-1.28-.06-2.59-.36-3.93-.91-1.34-.55-2.55-1.32-3.65-2.32-1.09-1-2-2.22-2.73-3.66-.73-1.44-1.14-3.09-1.22-4.93-.09.18-.23.47-.44.87-.2.4-.49.97-.85,1.72-.36.74-.82,1.68-1.35,2.81-.54,1.13-1.2,2.48-1.99,4.06-.79,1.58-1.63,3.13-2.53,4.66-.9,1.53-1.79,2.98-2.66,4.35-.87,1.37-1.7,2.6-2.49,3.7-.79,1.1-1.44,2.01-1.96,2.72-.67.92-1.35,1.67-2.05,2.23-.7.56-1.35.99-1.96,1.27-.61.28-1.15.47-1.62.56-.47.09-.83.13-1.09.13-.32,0-.66-.08-1.03-.25-.36-.16-.71-.36-1.05-.6-.34-.24-.63-.51-.89-.83s-.44-.63-.52-.96c-.03-.89-.11-1.9-.24-3.01s-.34-2.38-.63-3.79c-.29-1.41-.68-2.97-1.18-4.66-.5-1.7-1.11-3.57-1.83-5.62-1.57-4.19-2.66-7.97-3.27-11.33-.61-3.36-.92-6.19-.92-8.48,0-1.67.46-3,1.4-4.02.93-1.01,2.2-1.52,3.8-1.52,1.16,0,1.98.39,2.44,1.16.46.77.7,1.7.7,2.77,0,.89-.13,1.77-.39,2.63-.26.86-.39,1.74-.39,2.63,0,.48.06,1.21.17,2.21.12,1,.28,2.09.48,3.28.2,1.19.44,2.4.72,3.64.28,1.23.57,2.31.89,3.23.58,1.7,1.11,3.37,1.57,5.02.46,1.65.87,3.17,1.2,4.55.33,1.38.62,2.56.85,3.52.23.97.41,1.63.52,1.99.23.03.58-.21,1.05-.71.46-.51.98-1.16,1.55-1.96s1.18-1.72,1.83-2.74,1.28-2.05,1.88-3.08c.6-1.03,1.15-2.01,1.66-2.94.51-.94.92-1.73,1.24-2.39.44-.86.92-1.9,1.44-3.12.52-1.22,1.04-2.49,1.55-3.81.51-1.32.97-2.62,1.4-3.88.42-1.26.75-2.37.98-3.32.35-1.37.87-2.39,1.57-3.06s1.77-.97,3.23-.91c.44,0,.89.08,1.35.25.46.16.89.42,1.27.78.38.36.69.81.94,1.36.25.55.37,1.21.37,1.99.03,2.23.26,4.19.7,5.87.44,1.68,1.03,3.09,1.79,4.22.76,1.13,1.64,1.99,2.66,2.59,1.02.6,2.14.92,3.36.98,1.22.06,2.57-.06,4.04-.36,1.47-.3,2.79-.74,3.95-1.34,1.16-.59,2.2-1.13,3.1-1.61.9-.48,1.64-.7,2.23-.67.7.03,1.05.31,1.05.85Z"/>
  <path class="cls-1" d="M441.53,42.79c0,.48-.32,1.26-.96,2.36-1.16,1.9-2.61,3.96-4.34,6.16-1.73,2.2-3.65,4.41-5.76,6.63-2.11,2.22-4.35,4.35-6.72,6.4-2.37,2.05-4.78,3.86-7.22,5.42s-4.86,2.82-7.25,3.77c-2.39.95-4.66,1.43-6.81,1.43h-.31c-4.98,0-8.7-1.46-11.18-4.37-2.47-2.91-3.71-6.97-3.71-12.18,0-2.08.16-4.28.48-6.6.32-2.32.88-4.68,1.68-7.07.8-2.39,1.89-4.79,3.27-7.18,1.38-2.39,3.14-4.71,5.26-6.94,1.6-1.64,3.29-2.89,5.06-3.77,1.77-.88,3.45-1.32,5.02-1.32.23,0,.54.06.92.18.38.12.76.28,1.16.47.39.19.77.43,1.14.71.36.28.68.59.94.91.81,1.07,1.41,2.1,1.79,3.08.38.98.57,2.13.57,3.44,0,1.73-.23,3.3-.7,4.71-.47,1.41-1.14,2.79-2.01,4.13s-1.95,2.68-3.23,4.04c-1.28,1.35-2.75,2.82-4.41,4.39-.55.54-1.21,1.13-1.96,1.78-.76.65-1.57,1.34-2.44,2.05s-1.78,1.46-2.71,2.23c-.93.77-1.85,1.53-2.75,2.28.23,5.33,3.13,7.99,8.69,7.99,3.08,0,6.37-.83,9.87-2.5,1.72-.83,3.32-1.79,4.8-2.88,1.48-1.09,2.94-2.19,4.37-3.32.7-.56,1.47-1.23,2.31-2.01.84-.77,1.71-1.59,2.6-2.45.89-.86,1.77-1.72,2.66-2.59.89-.86,1.72-1.68,2.51-2.45.49-.51,1.03-1.04,1.59-1.61.57-.56,1.17-1.17,1.81-1.83l2.36-2.41c1.43-1.28,2.46-1.92,3.1-1.92.35,0,.52.28.52.85ZM407.92,36.09c0-.89-.23-1.67-.7-2.34-.47-.67-1.03-1-1.7-1-.5,0-1.13.21-1.9.62-.77.42-1.59,1.16-2.47,2.23-1.78,2.2-3.29,4.86-4.54,7.96-1.25,3.11-2.12,6.57-2.62,10.37,1.83-1.52,3.38-2.87,4.65-4.06,1.27-1.19,2.41-2.3,3.43-3.35.7-.71,1.39-1.47,2.07-2.28.68-.8,1.31-1.65,1.88-2.54s1.03-1.81,1.38-2.77c.35-.95.52-1.9.52-2.86Z"/>
  <path class="cls-1" d="M494.4,63.18c0,1.04-.35,2.19-1.05,3.44s-1.72,2.42-3.08,3.5c-1.35,1.09-3.03,1.99-5.04,2.72-2.01.73-4.31,1.09-6.9,1.09s-4.93-.47-6.94-1.41-3.7-2.4-5.09-4.39c-1.38-1.99-2.43-4.52-3.14-7.59-.71-3.06-1.07-6.72-1.07-10.98-.47.3-1.15.9-2.05,1.81-.9.91-1.91,1.98-3.03,3.21-1.12,1.23-2.29,2.57-3.49,3.99-1.21,1.43-2.36,2.8-3.45,4.13-1.09,1.32-2.07,2.55-2.92,3.68-.86,1.13-1.49,2.01-1.9,2.63-.73,1.13-1.31,2.07-1.75,2.83s-.84,1.37-1.22,1.83c-.38.46-.78.79-1.2.98-.42.19-.97.29-1.64.29-.61,0-1.18-.1-1.7-.29-.52-.19-.98-.45-1.35-.76-.38-.31-.67-.66-.87-1.05-.2-.39-.31-.77-.31-1.16,0-.54.03-1.15.09-1.85.06-.7.14-1.41.24-2.14.1-.73.21-1.45.33-2.16.12-.71.22-1.35.31-1.92.29-1.58.61-3.42.96-5.53.35-2.11.63-4.68.83-7.72.15-1.93.28-3.76.41-5.49.13-1.72.2-3.52.2-5.4,0-.89.1-1.75.31-2.59.2-.83.52-1.57.94-2.21.42-.64.95-1.15,1.57-1.54.63-.39,1.38-.58,2.25-.58.64,0,1.16.09,1.57.27.41.18.73.42.96.71.23.3.39.63.46,1,.07.37.11.75.11,1.14,0,.45-.03.89-.09,1.32-.06.43-.09.81-.09,1.14,0,.09-.04.42-.13,1s-.21,1.32-.37,2.21c-.16.89-.35,1.89-.57,2.99-.22,1.1-.44,2.2-.68,3.3-.5,2.29-.85,4.13-1.07,5.51s-.38,2.57-.48,3.57c-.1,1-.17,1.93-.22,2.79-.04.86-.14,1.9-.28,3.12.64-.89,1.54-2,2.71-3.32,1.16-1.32,2.37-2.69,3.62-4.1,1.25-1.41,2.45-2.78,3.6-4.1,1.15-1.32,2.06-2.43,2.73-3.32.87-1.19,1.76-2.28,2.66-3.26.9-.98,1.83-1.83,2.79-2.54s1.98-1.27,3.06-1.67c1.08-.4,2.23-.6,3.45-.6.84,0,1.38.21,1.62.62.23.42.35.92.35,1.52,0,.24,0,.48-.02.74-.02.25-.02.5-.02.74s-.04.66-.13,1.27c-.09.61-.17,1.26-.26,1.96-.09.7-.17,1.36-.24,1.99-.07.62-.11,1.06-.11,1.29,0,2.59.19,4.96.57,7.12.38,2.16.99,4.02,1.83,5.58.84,1.56,1.96,2.77,3.36,3.64,1.4.86,3.11,1.29,5.15,1.29,1.31,0,2.47-.08,3.47-.25,1-.16,1.96-.44,2.88-.83.92-.39,1.85-.88,2.79-1.47.95-.59,2.01-1.34,3.21-2.23.29-.24.58-.46.87-.67.23-.15.46-.3.7-.45.23-.15.42-.22.57-.22l.44,1.83Z"/>
  <path class="cls-1" d="M127.28,126.43c0,.89-.09,1.57-.28,2.03-.19.46-.44.78-.74.96s-.65.28-1.05.29c-.39.02-.78.02-1.16.02-.99,0-1.88,0-2.68-.02-.8-.01-1.6-.04-2.4-.07-.8-.03-1.64-.05-2.53-.07-.89-.01-1.91-.02-3.08-.02-1.22,0-2.68.11-4.37.33-1.69.22-3.35.5-5,.83-1.64.33-3.14.68-4.47,1.05-1.34.37-2.26.71-2.75,1-.23.15-.45.36-.65.65-.2.28-.38.6-.52.94-.15.34-.27.69-.37,1.05-.1.36-.15.67-.15.94-.29,3.15-.62,6.28-.98,9.37-.36,3.09-.7,6.17-1,9.21-.31,3.05-.57,6.07-.79,9.06s-.33,5.96-.33,8.9c0,.51.07,1.26.2,2.25.13,1,.28,2.01.44,3.03.16,1.03.31,1.94.44,2.74s.2,1.26.2,1.38c0,.6-.09,1.2-.26,1.81-.17.61-.41,1.16-.72,1.65s-.68.89-1.14,1.2c-.45.31-.94.47-1.46.47-.35,0-.73-.1-1.14-.31-.41-.21-.81-.49-1.2-.85s-.75-.78-1.07-1.27c-.32-.49-.57-1.02-.74-1.58-.23-.74-.42-1.6-.57-2.57-.15-.97-.26-1.97-.35-3.01-.09-1.04-.15-2.07-.17-3.1-.03-1.03-.04-1.96-.04-2.81s0-1.57.02-2.16c.01-.59.02-.98.02-1.16,0-.89.09-2.3.26-4.24.17-1.93.39-4.1.65-6.49.26-2.39.55-4.86.85-7.41s.59-4.87.85-6.98c.26-2.11.48-3.85.65-5.22.17-1.37.26-2.07.26-2.1,0-.48-.1-.82-.31-1.03-.2-.21-.44-.34-.7-.4-.26-.06-.5-.07-.72-.04-.22.03-.34.04-.37.04-1.11,0-2.53.1-4.28.31-1.75.21-3.61.44-5.59.69-1.98.25-3.99.48-6.05.69-2.05.21-3.95.31-5.7.31h-1.22c-.41,0-.82-.04-1.24-.13-.42-.09-.84-.25-1.27-.49-.42-.24-.85-.58-1.29-1.03-.03-.3-.05-.68-.07-1.16-.02-.48.03-.96.13-1.45.1-.49.31-.94.61-1.34s.76-.68,1.38-.83c1.31-.3,2.8-.54,4.47-.71,1.67-.18,3.38-.33,5.11-.45,1.73-.12,3.42-.24,5.06-.36,1.64-.12,3.11-.27,4.39-.45.9-.12,2.02-.27,3.36-.45,1.34-.18,2.71-.37,4.13-.58,1.41-.21,2.78-.42,4.1-.62,1.32-.21,2.41-.4,3.25-.58,1.75-.36,3.6-.77,5.57-1.25,1.96-.48,3.95-.93,5.96-1.36,2.01-.43,4-.79,5.98-1.07,1.98-.28,3.87-.42,5.68-.42.2,0,.56,0,1.07.02.51.02,1.08.05,1.72.11.64.06,1.32.15,2.05.27.73.12,1.41.28,2.05.49.32.09.6.28.85.58.25.3.46.62.63.98s.31.71.41,1.07c.1.36.15.65.15.89Z"/>
  <path class="cls-1" d="M188.88,150.48c0,1.01-.28,2.09-.85,3.23-.57,1.15-1.2,2.19-1.9,3.15-1.83,2.53-3.75,4.84-5.74,6.94-1.99,2.1-4.01,4.08-6.05,5.96-2.12,1.96-4.24,3.5-6.35,4.6-2.11,1.1-4.01,1.65-5.7,1.65-.73,0-1.45-.18-2.16-.54-.71-.36-1.38-.83-2.01-1.41-.63-.58-1.18-1.26-1.66-2.03-.48-.77-.85-1.58-1.11-2.41-.15-.45-.28-.96-.39-1.54-.12-.58-.23-1.12-.35-1.61-.12-.49-.25-.91-.39-1.25-.15-.34-.31-.51-.48-.51-.12,0-.36.19-.74.58s-.82.89-1.33,1.49c-.51.61-1.06,1.29-1.64,2.05-.58.76-1.16,1.49-1.72,2.21s-1.08,1.37-1.53,1.96c-.45.6-.81,1.04-1.07,1.34-.9,1.04-1.97,2.1-3.21,3.19-1.24,1.09-2.47,2.07-3.71,2.97-1.24.89-2.37,1.62-3.41,2.19-1.03.57-1.8.85-2.29.85-1.11,0-2.18-.19-3.21-.56-1.03-.37-1.94-.91-2.73-1.63s-1.42-1.59-1.9-2.63c-.48-1.04-.72-2.23-.72-3.57,0-2.2.43-4.71,1.29-7.54.86-2.83,1.99-5.7,3.41-8.61,1.41-2.91,3.03-5.72,4.87-8.41,1.83-2.69,3.74-5,5.72-6.94,2.3-2.23,4.71-3.87,7.22-4.93,2.52-1.06,5.1-1.58,7.75-1.58.49,0,.92.1,1.29.31.36.21.68.48.94.8.26.33.49.69.7,1.09.2.4.41.81.61,1.23.12.27.36.57.74.89.38.33.77.66,1.18,1,.41.34.76.68,1.07,1,.31.33.46.64.46.94,0,.62-.12,1.32-.37,2.07-.25.76-.52,1.64-.81,2.63-.29,1-.56,2.13-.81,3.39-.25,1.26-.37,2.72-.37,4.35,0,1.07.09,2.29.28,3.66.19,1.37.48,2.67.87,3.9.39,1.23.89,2.27,1.51,3.1.61.83,1.32,1.25,2.14,1.25.99,0,1.98-.29,2.97-.87.99-.58,2.12-1.39,3.41-2.43,2.85-2.32,5.56-4.86,8.12-7.63,2.56-2.77,5.18-5.52,7.86-8.25.46-.48.9-.71,1.31-.71.67,0,1,.54,1,1.61ZM154.74,145.35c0-.06-.04-.22-.13-.49s-.22-.54-.39-.83c-.17-.28-.39-.54-.63-.76-.25-.22-.52-.33-.81-.33h-.09c-1.08.12-2.23.48-3.45,1.09-1.22.61-2.52,1.55-3.89,2.81-1.37,1.26-2.81,2.89-4.32,4.89-1.51,1.99-3.09,4.42-4.71,7.27-.5.86-1.04,1.81-1.64,2.83-.6,1.03-1.16,2.16-1.7,3.39-.54,1.23-.99,2.55-1.35,3.95-.36,1.4-.55,2.87-.55,4.42,0,.92.33,1.62.98,2.1.65.48,1.33.71,2.03.71s1.67-.41,2.84-1.23c1.16-.82,2.42-1.9,3.78-3.26,1.35-1.35,2.73-2.9,4.15-4.64,1.41-1.74,2.72-3.53,3.93-5.38,1.21-1.84,2.25-3.66,3.14-5.44.89-1.78,1.49-3.41,1.81-4.86.09-.45.19-.97.31-1.58.12-.61.22-1.22.33-1.83.1-.61.19-1.17.26-1.7.07-.52.11-.9.11-1.14Z"/>
  <path class="cls-1" d="M230.48,159.4c-.35.68-.87,1.52-1.57,2.52-.7,1-1.48,2.05-2.36,3.17s-1.78,2.23-2.73,3.35c-.95,1.12-1.83,2.12-2.64,3.01-2.77,3.09-5.37,5.76-7.81,8.01-2.44,2.25-4.75,4.1-6.92,5.56-2.17,1.46-4.21,2.54-6.13,3.23-1.92.7-3.75,1.05-5.5,1.05-1.48,0-2.79-.31-3.91-.94-1.12-.62-2.07-1.48-2.84-2.57-.77-1.09-1.35-2.36-1.72-3.84-.38-1.47-.57-3.06-.57-4.75,0-1.58.04-3.29.13-5.15.09-1.86.2-3.69.35-5.49.15-1.8.3-3.46.46-5,.16-1.53.33-2.76.5-3.68.09-.51.16-1.07.22-1.7.06-.62.1-1.24.13-1.85.03-.61.05-1.2.07-1.76.01-.56.02-1.03.02-1.38,0-.33.12-.85.35-1.56.23-.71.57-1.43,1.03-2.16.45-.73.99-1.37,1.62-1.92.63-.55,1.33-.83,2.12-.83,1.22,0,2.17.26,2.84.78.67.52,1,1.48,1,2.88,0,.36-.1.99-.31,1.9-.2.91-.45,2-.74,3.28-.29,1.28-.62,2.7-.98,4.26-.36,1.56-.69,3.18-.98,4.86-.29,1.68-.54,3.38-.74,5.11-.2,1.73-.31,3.38-.31,4.95,0,1.28.11,2.46.33,3.55.22,1.09.51,2.02.87,2.81.36.79.79,1.41,1.29,1.85.49.45,1.02.67,1.57.67,1.4,0,2.79-.26,4.17-.78,1.38-.52,2.9-1.41,4.56-2.65s3.51-2.9,5.57-4.95,4.46-4.6,7.22-7.63c.93-1.01,1.79-1.96,2.58-2.83.79-.88,1.56-1.75,2.31-2.61.76-.86,1.56-1.78,2.4-2.74.84-.97,1.79-2.07,2.84-3.32.29-.39.67-.58,1.14-.58.49,0,.94.24,1.33.71.39.48.59,1.16.59,2.05,0,.42-.06.89-.17,1.43-.12.54-.34,1.1-.65,1.7ZM206.6,122.86c0,.71-.19,1.64-.57,2.77-.38,1.13-.83,2.23-1.35,3.3s-1.07,1.99-1.64,2.74-1.03,1.14-1.38,1.14-.82-.05-1.4-.16c-.58-.1-1.15-.27-1.7-.49-.55-.22-1.03-.5-1.44-.83-.41-.33-.61-.71-.61-1.16s.07-.85.22-1.2c.15-.36.31-.73.48-1.12.17-.39.33-.82.48-1.29.15-.48.22-1.04.22-1.7,0-1.34.33-2.5,1-3.48.67-.98,1.59-1.47,2.75-1.47.29,0,.71.02,1.27.04.55.03,1.1.13,1.64.31.54.18,1.01.47,1.42.87.41.4.61.97.61,1.72Z"/>
  <path class="cls-1" d="M268.16,159.04c0,1.4-.83,3.59-2.49,6.56-.32.57-.76,1.24-1.33,2.03-.57.79-1.2,1.61-1.9,2.45s-1.43,1.71-2.18,2.59c-.76.88-1.5,1.69-2.23,2.43-1.11,1.13-2.32,2.23-3.65,3.3-1.32,1.07-2.72,2.04-4.19,2.9-1.47.86-2.98,1.55-4.54,2.07-1.56.52-3.09.78-4.61.78-2.01,0-3.89-.37-5.63-1.12-1.75-.74-3.27-1.89-4.56-3.44-1.3-1.55-2.31-3.49-3.06-5.82-.74-2.33-1.11-5.09-1.11-8.28,0-2.17.1-4.44.31-6.8.2-2.36.46-4.74.79-7.12.32-2.38.68-4.74,1.07-7.07.39-2.33.79-4.59,1.2-6.76.26-1.49.49-2.71.68-3.66.19-.95.36-1.83.5-2.63.15-.8.28-1.61.39-2.43.12-.82.26-1.84.44-3.06.12-.83.22-1.57.33-2.21.1-.64.18-1.17.24-1.58.12-.71.31-1.4.59-2.05.28-.65.63-1.23,1.05-1.74.42-.51.91-.91,1.46-1.2.55-.3,1.16-.45,1.83-.45,1.4,0,2.43.67,3.1,2.01-.17.92-.36,1.81-.55,2.65-.19.85-.36,1.75-.5,2.7-.73,3.75-1.32,6.78-1.79,9.1-.47,2.32-.8,3.96-1,4.91-.35,1.87-.72,3.9-1.11,6.07-.39,2.17-.76,4.39-1.09,6.65-.34,2.26-.6,4.49-.81,6.69-.2,2.2-.31,4.25-.31,6.16,0,2.05.16,3.92.48,5.6.32,1.68.84,3.12,1.55,4.31.71,1.19,1.63,2.11,2.75,2.77,1.12.65,2.48.98,4.08.98,1.75,0,3.46-.39,5.15-1.18,1.69-.79,3.31-1.79,4.87-3.01,1.56-1.22,3.03-2.57,4.43-4.04s2.68-2.89,3.84-4.26c.93-1.13,1.75-2.1,2.44-2.92.7-.82,1.28-1.51,1.75-2.07.38-.45.81-.91,1.29-1.38.48-.48.92-.71,1.33-.71.46,0,.7.43.7,1.29Z"/>
  <path class="cls-1" d="M294.83,154.18c0,.27-.13.57-.39.91-.26.34-.57.67-.92.98s-.71.6-1.07.85c-.36.25-.66.44-.89.56-.06.03-.31.09-.76.18-.45.09-.98.18-1.57.27-.6.09-1.19.18-1.77.27-.58.09-1.02.15-1.31.18-1.81.21-3.42.39-4.85.56-1.43.16-2.53.41-3.32.74-.03.27-.09.8-.17,1.58-.09.79-.19,1.7-.31,2.72-.12,1.03-.25,2.11-.39,3.26-.15,1.15-.28,2.23-.39,3.26-.12,1.03-.22,1.92-.31,2.68s-.15,1.26-.17,1.49c-.15,1.28-.34,2.83-.57,4.64-.23,1.81-.51,3.71-.83,5.69-.32,1.98-.69,3.95-1.11,5.91-.42,1.96-.89,3.72-1.42,5.26-1.22,3.54-2.86,6.33-4.91,8.37-2.05,2.04-4.58,3.06-7.57,3.06-.76,0-1.49-.13-2.2-.38-.71-.25-1.36-.59-1.94-1-.58-.42-1.05-.89-1.4-1.43s-.52-1.1-.52-1.7v-.98c0-.27.04-.48.11-.62.07-.15.2-.26.37-.33.17-.07.45-.11.83-.11.12,0,.36.04.72.11.36.07.76.15,1.18.22.42.07.84.15,1.24.22.41.07.73.11.96.11,1.48,0,2.82-.61,4.02-1.83,1.19-1.22,2.25-3.13,3.19-5.73.93-2.6,1.75-5.95,2.44-10.04s1.29-8.99,1.79-14.7c.03-.51.08-1.12.15-1.83.07-.71.13-1.45.17-2.21s.09-1.49.13-2.21.07-1.32.07-1.83c0-.39-.15-.7-.46-.94-.31-.24-.64-.45-1-.65-.36-.19-.7-.42-1-.67-.31-.25-.46-.59-.46-1,0-.39.16-.82.48-1.29.32-.48.87-1.22,1.66-2.23.41-.51.77-1.04,1.09-1.61.32-.56.59-1.12.81-1.65s.39-1.03.52-1.47.22-.82.28-1.12c.06-.3.13-.71.22-1.23.09-.52.18-1.09.28-1.72.1-.62.21-1.27.33-1.94.12-.67.22-1.32.31-1.94.23-1.52.47-2.95.72-4.31.25-1.35.55-2.68.89-3.97s.77-2.59,1.27-3.88c.49-1.29,1.09-2.62,1.79-3.99.76-1.49,1.56-2.83,2.42-4.04.86-1.2,1.78-2.23,2.77-3.08.99-.85,2.06-1.5,3.21-1.96,1.15-.46,2.39-.69,3.73-.69,1.16,0,2.23.21,3.21.62.97.42,1.83,1,2.55,1.74.73.74,1.29,1.64,1.7,2.68.41,1.04.61,2.19.61,3.44,0,1.46-.2,3.04-.59,4.75-.39,1.71-1.13,3.38-2.2,5.02-1.22,1.9-2.36,2.86-3.41,2.86h-.17c.12-.54.23-1.14.35-1.83.12-.68.2-1.39.26-2.12.06-.73.11-1.45.15-2.16s.07-1.35.07-1.92c0-1.37-.09-2.51-.28-3.44-.19-.92-.45-1.67-.79-2.23-.34-.56-.74-.97-1.22-1.2-.48-.24-1-.36-1.55-.36-.73,0-1.42.28-2.07.83-.65.55-1.25,1.21-1.79,1.99-.54.77-1.03,1.58-1.46,2.43s-.79,1.57-1.05,2.16c-.5,1.1-1,2.54-1.51,4.31-.51,1.77-.98,3.63-1.42,5.58-.44,1.95-.81,3.84-1.11,5.67s-.5,3.37-.59,4.62c0,.77.05,1.41.15,1.9.1.49.25.87.46,1.14.2.27.46.45.79.56.32.1.68.16,1.09.16.52,0,1.27,0,2.23-.02.96-.01,1.99-.03,3.1-.04,1.11-.01,2.21-.02,3.32-.02s2.08.02,2.92.04c.12.03.29.06.52.09.23.03.46.08.7.16.23.07.44.18.61.31s.26.32.26.56Z"/>
  <path class="cls-1" d="M352.98,155.3c0,.45-.32,1.23-.96,2.36-1.51,2.23-3.21,4.46-5.09,6.69s-3.87,4.35-5.98,6.36c-2.11,2.01-4.31,3.88-6.59,5.62-2.29,1.74-4.59,3.24-6.92,4.51-2.33,1.26-4.65,2.24-6.96,2.92-2.31.68-4.55,1.01-6.7.98-4.66,0-8.27-1.38-10.85-4.15s-3.86-6.94-3.86-12.54c0-4.67.71-9.21,2.12-13.61,1.41-4.4,3.82-8.64,7.22-12.72.64-.71,1.36-1.4,2.16-2.05.8-.65,1.64-1.23,2.53-1.74.89-.51,1.8-.91,2.75-1.2.95-.3,1.9-.48,2.86-.54.23,0,.55.03.96.09.41.06.84.16,1.31.31.46.15.92.33,1.35.56s.79.5,1.05.83c.81.95,1.46,1.93,1.94,2.94.48,1.01.75,2.13.81,3.35.06,1.37-.09,2.72-.46,4.04-.36,1.32-.98,2.68-1.83,4.06-.86,1.38-1.99,2.81-3.38,4.28s-3.09,3.06-5.06,4.75c-1.25,1.07-2.64,2.25-4.17,3.55s-3.37,2.65-5.52,4.08c0,2.89.85,5.08,2.55,6.58,1.7,1.5,4.04,2.25,7.01,2.25,1.66,0,3.33-.22,5.02-.67,1.69-.45,3.35-1.03,4.98-1.76,1.63-.73,3.21-1.56,4.74-2.5s2.96-1.9,4.3-2.88c2.47-1.84,4.71-3.68,6.72-5.51s4-3.75,5.98-5.78l2.36-2.41c1.43-1.28,2.46-1.92,3.1-1.92.35,0,.52.28.52.85ZM319.63,146.42c-.03-.45-.09-.88-.2-1.32-.1-.43-.26-.81-.46-1.14-.2-.33-.44-.59-.7-.78-.26-.19-.57-.29-.92-.29-1.54.09-3.09,1.05-4.63,2.88-1.54,1.83-3,4.25-4.37,7.25-.32.65-.6,1.39-.85,2.21-.25.82-.48,1.65-.7,2.5s-.41,1.69-.57,2.52c-.16.83-.3,1.58-.41,2.23,1.51-1.16,2.91-2.23,4.19-3.21,1.28-.98,2.47-1.99,3.58-3.03.7-.65,1.41-1.36,2.14-2.12.73-.76,1.39-1.55,1.99-2.39.6-.83,1.07-1.7,1.42-2.59s.51-1.8.48-2.72Z"/>
  <path class="cls-1" d="M411.17,155.7c0,.36-.04.78-.13,1.27s-.21.99-.37,1.49c-.16.51-.34.99-.52,1.45-.19.46-.39.83-.59,1.09-.17.24-.43.56-.76.96-.34.4-.71.84-1.11,1.32-.41.48-.85.97-1.33,1.49-.48.52-.98,1.02-1.51,1.49-1.81,1.7-3.57,3.34-5.3,4.93-1.73,1.59-3.51,3-5.35,4.22-1.83,1.22-3.75,2.19-5.74,2.92-1.99.73-4.15,1.08-6.48,1.05-1.08,0-2.16-.2-3.25-.6s-2.12-.97-3.08-1.72c-.96-.74-1.79-1.64-2.49-2.68-.7-1.04-1.19-2.19-1.48-3.44-.84.89-1.73,1.82-2.66,2.79-.93.97-1.9,1.94-2.9,2.92s-2.05,1.93-3.12,2.86c-1.08.92-2.18,1.77-3.32,2.54-.64.42-1.4.86-2.29,1.34-.89.48-1.82.91-2.79,1.32-.98.4-1.95.73-2.92.98-.98.25-1.86.38-2.64.38-1.19,0-2.22-.38-3.08-1.14-.86-.76-1.57-1.69-2.14-2.79-.57-1.1-.99-2.28-1.27-3.52-.28-1.25-.41-2.36-.41-3.35,0-1.96.28-3.97.83-6.02.55-2.05,1.27-4.05,2.16-6,.89-1.95,1.88-3.8,2.97-5.56,1.09-1.75,2.16-3.32,3.21-4.68,1.11-1.43,2.42-2.85,3.93-4.26,1.51-1.41,3.08-2.68,4.71-3.79,1.63-1.12,3.23-2.01,4.8-2.7,1.57-.68,2.97-1.03,4.19-1.03h1.94c.68,0,1.36.04,2.03.11.67.07,1.32.19,1.96.36.64.16,1.22.41,1.75.74.26.18.57.52.92,1.03.35.51.68,1.07.98,1.7s.56,1.25.76,1.87c.2.62.31,1.12.31,1.47,0,.98-.22,2.29-.65,3.93-.47,2.05-.89,3.92-1.29,5.6-.39,1.68-.59,3.41-.59,5.2,0,1.01.16,2.05.48,3.1.32,1.06.78,2.02,1.38,2.88.6.86,1.32,1.57,2.18,2.12.86.55,1.83.83,2.9.83,1.77,0,3.59-.38,5.46-1.14,1.86-.76,3.75-1.8,5.65-3.12,1.91-1.32,3.8-2.86,5.7-4.6,1.89-1.74,3.75-3.59,5.59-5.56.15-.18.4-.48.76-.91.36-.43.74-.86,1.14-1.29.39-.43.78-.82,1.16-1.16.38-.34.65-.51.83-.51.61,0,.92.61.92,1.83ZM372.32,152c0-.51-.03-1.13-.09-1.87-.06-.74-.25-1.35-.57-1.83-.32-.48-.71-.71-1.18-.69-.47.02-.93.02-1.4.02-1.02,0-2,.16-2.95.49-.95.33-1.87.78-2.77,1.36-.9.58-1.77,1.25-2.6,2.01s-1.64,1.55-2.42,2.39c-.67.68-1.38,1.53-2.12,2.54-.74,1.01-1.47,2.12-2.18,3.32-.71,1.2-1.4,2.47-2.07,3.79-.67,1.32-1.25,2.63-1.75,3.93-.5,1.29-.89,2.54-1.18,3.75-.29,1.2-.44,2.3-.44,3.28,0,.3.04.69.11,1.18.07.49.19.97.35,1.43.16.46.38.86.65,1.18.28.33.62.49,1.03.49,1.34,0,3.01-.43,5.02-1.29,2.73-1.19,5.22-2.82,7.44-4.89,2.23-2.07,4.13-4.45,5.7-7.16,2.27-4.19,3.41-8.67,3.41-13.43Z"/>
  <path class="cls-1" d="M449.98,134.73c.32,0,.6.19.83.58.23.39.35.74.35,1.07,0,.57-.21,1.23-.63,1.99-.42.76-1,1.52-1.72,2.3-.73.77-1.59,1.52-2.58,2.25-.99.73-2.04,1.35-3.14,1.85-1.6.71-3.38,1.4-5.33,2.05-1.95.65-4.01,1.23-6.18,1.74-2.17.51-4.42.94-6.77,1.32-2.34.37-4.69.65-7.05.83-.15,0-.3.28-.46.85-.16.57-.33,1.28-.5,2.14-.17.86-.34,1.82-.5,2.88-.16,1.06-.31,2.08-.46,3.08-.15,1-.28,1.9-.39,2.7-.12.8-.2,1.38-.26,1.74-.26,1.61-.49,3.03-.68,4.26-.19,1.23-.35,2.39-.48,3.48-.13,1.09-.24,2.13-.33,3.15-.09,1.01-.15,2.08-.17,3.21-.03.62-.04,1.18-.02,1.67.01.49.02.97.02,1.45s0,.96-.02,1.45c-.02.49-.05,1.05-.11,1.67-.03.18-.21.43-.55.76-.34.33-.72.65-1.16.96s-.87.59-1.29.83c-.42.24-.72.36-.89.36-.73,0-1.32-.25-1.79-.74-.47-.49-.83-1.05-1.09-1.67s-.44-1.23-.52-1.83c-.09-.59-.13-1-.13-1.2,0-2.41.16-4.73.48-6.96.32-2.23.71-4.5,1.16-6.8.45-2.3.92-4.7,1.4-7.18.48-2.48.89-5.2,1.24-8.14-.23-.54-.59-.88-1.07-1.03-.48-.15-.97-.22-1.46-.22-.17,0-.34,0-.5.02-.16.02-.31.02-.46.02s-.52.02-1.14.07-1.34.09-2.18.13c-.84.04-1.74.1-2.68.18-.95.07-1.83.13-2.66.18s-1.55.09-2.16.13-.99.07-1.14.07c-.46,0-.92-.15-1.38-.45-.45-.3-.85-.65-1.2-1.05s-.63-.82-.85-1.25c-.22-.43-.33-.8-.33-1.09,0-.59.11-1.11.33-1.54.22-.43.5-.78.83-1.05.34-.27.71-.47,1.14-.6.42-.13.84-.2,1.24-.2.44,0,1.08-.01,1.92-.04.84-.03,1.77-.07,2.79-.11,1.02-.04,2.08-.1,3.19-.16,1.11-.06,2.14-.13,3.1-.22s1.8-.18,2.53-.27c.73-.09,1.24-.18,1.53-.27.61-.21,1.25-.86,1.92-1.96.67-1.1,1.27-2.78,1.79-5.04.12-.51.26-1.22.44-2.14.17-.92.36-1.95.57-3.08.2-1.13.41-2.3.61-3.5.2-1.2.39-2.35.57-3.44.17-1.09.31-2.05.41-2.9.1-.85.17-1.48.2-1.9,0-.39.15-.82.46-1.29.31-.48.66-.91,1.07-1.32.41-.4.81-.74,1.22-1,.41-.27.71-.4.92-.4.44,0,.86.15,1.27.45.41.3.76.65,1.07,1.05s.55.81.72,1.23c.17.42.26.73.26.94,0,.15-.04.48-.11,1-.07.52-.17,1.15-.28,1.9-.12.74-.26,1.55-.41,2.41-.16.86-.31,1.68-.44,2.45-.13.77-.26,1.47-.37,2.07-.12.61-.2,1.03-.26,1.27-.41,1.81-.75,3.32-1.03,4.51-.28,1.19-.5,2.19-.65,2.99-.16.8-.28,1.45-.35,1.94-.07.49-.11.93-.11,1.32,0,.68.09,1.15.26,1.38.17.24.46.37.87.4.12,0,.58-.04,1.4-.13.81-.09,1.86-.22,3.12-.4s2.67-.4,4.21-.67c1.54-.27,3.1-.57,4.67-.91,1.57-.34,3.08-.72,4.54-1.14,1.45-.42,2.72-.88,3.8-1.38,1.05-.51,2.01-1,2.9-1.47.89-.48,1.67-.91,2.36-1.29.68-.39,1.25-.69,1.7-.91.45-.22.79-.33,1.03-.33Z"/>
  <path class="cls-1" d="M508.04,163.73c0,.33-.02.71-.07,1.16s-.13.91-.26,1.38c-.13.48-.31.94-.55,1.41-.23.46-.52.87-.87,1.23-1.75,1.7-3.56,3.23-5.43,4.62s-3.75,2.56-5.61,3.52c-1.86.97-3.68,1.72-5.46,2.25-1.78.54-3.43.8-4.98.8-2.12,0-3.89-.41-5.3-1.23-1.41-.82-2.54-1.89-3.38-3.21-.84-1.32-1.44-2.84-1.79-4.55-.35-1.71-.52-3.46-.52-5.24,0-.59.02-1.29.07-2.07.04-.79.09-1.61.15-2.45.06-.85.11-1.67.15-2.48s.07-1.53.07-2.19c0-.92-.07-1.72-.2-2.39s-.37-1.14-.72-1.41c-.61.33-1.37.97-2.27,1.92-.9.95-1.9,2.16-2.99,3.61-1.09,1.46-2.26,3.14-3.49,5.04-1.24,1.9-2.48,3.96-3.73,6.16-.79,1.37-1.6,2.8-2.44,4.28-.84,1.49-1.68,2.94-2.51,4.35-.83,1.41-1.65,2.76-2.47,4.04-.82,1.28-1.59,2.4-2.31,3.37-.73.97-1.4,1.73-2.01,2.3-.61.56-1.12.85-1.53.85-.52,0-.95-.04-1.29-.13-.34-.09-.63-.18-.87-.27-.25-.09-.47-.18-.65-.27-.19-.09-.39-.13-.59-.13-.23-.83-.41-1.83-.52-2.99-.12-1.16-.2-2.33-.26-3.5-.06-1.17-.09-2.26-.11-3.26-.02-1-.02-1.75-.02-2.25,0-3.99.28-8.18.85-12.58.57-4.4,1.24-9.02,2.03-13.85.79-4.83,1.6-9.89,2.44-15.17.84-5.28,1.54-10.8,2.1-16.58.17-.83.44-1.52.79-2.05s.74-.95,1.18-1.25c.44-.3.87-.5,1.31-.6.44-.1.83-.16,1.18-.16.87,0,1.57.46,2.1,1.38.52.92.79,2.16.79,3.7,0,.42-.05,1.06-.15,1.92-.1.86-.25,1.84-.44,2.92-.19,1.09-.39,2.25-.61,3.48-.22,1.23-.45,2.46-.7,3.68-.25,1.22-.48,2.39-.7,3.5s-.41,2.07-.59,2.88c-.7,3.21-1.33,6.48-1.9,9.79-.57,3.32-1.06,6.43-1.48,9.33-.42,2.9-.75,5.49-.98,7.76-.23,2.28-.35,3.98-.35,5.11v1.25c0,.54,0,1.09.02,1.65.01.57.04,1.09.07,1.58.03.49.07.83.13,1,1.08-.83,2.12-1.89,3.12-3.17,1-1.28,2.04-2.74,3.1-4.39,1.06-1.65,2.2-3.45,3.43-5.4,1.22-1.95,2.6-4.01,4.15-6.18.81-1.19,1.78-2.47,2.9-3.84,1.12-1.37,2.32-2.64,3.6-3.81,1.28-1.17,2.63-2.15,4.04-2.92,1.41-.77,2.82-1.16,4.21-1.16.64,0,1.16.55,1.55,1.65.39,1.1.59,2.53.59,4.28,0,.48-.07,1.2-.2,2.16-.13.97-.27,2.04-.41,3.21-.15,1.18-.28,2.39-.41,3.64s-.2,2.41-.2,3.48c0,.86.05,1.9.15,3.1.1,1.2.36,2.36.79,3.46.42,1.1,1.05,2.04,1.88,2.81.83.77,1.99,1.16,3.47,1.16,2.44,0,5.21-.59,8.29-1.78,3.08-1.19,6.34-3.11,9.78-5.76.35-.27.68-.54.98-.83.31-.28.58-.54.83-.78.25-.24.47-.44.68-.6.2-.16.36-.25.48-.25.03,0,.09.04.2.13.1.09.2.19.31.29.1.1.2.21.28.31.09.1.13.17.13.2Z"/>
  <path class="cls-1" d="M556.8,152.44c0,.48-.32,1.26-.96,2.36-1.16,1.9-2.61,3.96-4.34,6.16-1.73,2.2-3.65,4.41-5.76,6.63-2.11,2.22-4.35,4.35-6.72,6.4-2.37,2.05-4.78,3.86-7.22,5.42s-4.86,2.82-7.25,3.77c-2.39.95-4.66,1.43-6.81,1.43h-.31c-4.98,0-8.7-1.46-11.18-4.37-2.47-2.91-3.71-6.97-3.71-12.18,0-2.08.16-4.28.48-6.6.32-2.32.88-4.68,1.68-7.07.8-2.39,1.89-4.79,3.27-7.18,1.38-2.39,3.14-4.71,5.26-6.94,1.6-1.64,3.29-2.89,5.06-3.77,1.77-.88,3.45-1.32,5.02-1.32.23,0,.54.06.92.18.38.12.76.28,1.16.47.39.19.77.43,1.14.71.36.28.68.59.94.91.81,1.07,1.41,2.1,1.79,3.08.38.98.57,2.13.57,3.44,0,1.73-.23,3.3-.7,4.71-.47,1.41-1.14,2.79-2.01,4.13s-1.95,2.68-3.23,4.04c-1.28,1.35-2.75,2.82-4.41,4.39-.55.54-1.21,1.13-1.96,1.78-.76.65-1.57,1.34-2.44,2.05s-1.78,1.46-2.71,2.23c-.93.77-1.85,1.53-2.75,2.28.23,5.33,3.13,7.99,8.69,7.99,3.08,0,6.37-.83,9.87-2.5,1.72-.83,3.32-1.79,4.8-2.88,1.48-1.09,2.94-2.19,4.37-3.32.7-.56,1.47-1.23,2.31-2.01.84-.77,1.71-1.59,2.6-2.45.89-.86,1.77-1.72,2.66-2.59.89-.86,1.72-1.68,2.51-2.45.49-.51,1.03-1.04,1.59-1.61.57-.56,1.17-1.17,1.81-1.83l2.36-2.41c1.43-1.28,2.46-1.92,3.1-1.92.35,0,.52.28.52.85ZM523.19,145.75c0-.89-.23-1.67-.7-2.34-.47-.67-1.03-1-1.7-1-.5,0-1.13.21-1.9.62-.77.42-1.59,1.16-2.47,2.23-1.78,2.2-3.29,4.86-4.54,7.96-1.25,3.11-2.12,6.57-2.62,10.37,1.83-1.52,3.38-2.87,4.65-4.06,1.27-1.19,2.41-2.3,3.43-3.35.7-.71,1.39-1.47,2.07-2.28.68-.8,1.31-1.65,1.88-2.54s1.03-1.81,1.38-2.77c.35-.95.52-1.9.52-2.86Z"/>
  <path class="cls-1" d="M592.07,150.08c0,.18-.02.44-.04.78-.03.34-.1.68-.22,1.03-.12.34-.26.65-.41.91-.16.27-.37.4-.63.4-.17,0-.47,0-.87-.02-.41-.01-.84-.04-1.29-.07-.45-.03-.88-.05-1.29-.07-.41-.01-.7-.02-.87-.02-5.56.36-10.19,2.44-13.88,6.25-3.64,3.72-6.78,8.69-9.43,14.9-.5,1.28-.98,2.6-1.46,3.97-.48,1.37-.94,2.81-1.38,4.33-.23.83-.4,1.57-.5,2.21-.1.64-.27,1.32-.5,2.03-.06.24-.31.47-.74.69s-.92.42-1.46.6c-.54.18-1.06.33-1.55.45-.5.12-.83.18-1,.18-2.01.12-3.14-2.01-3.41-6.38-.09-1.19-.12-2.27-.11-3.23.01-.97.05-1.9.11-2.81.06-.91.14-1.86.24-2.86.1-1,.21-2.12.33-3.37.15-1.55.32-3.33.52-5.35.2-2.02.44-4.06.7-6.11s.54-4.01.83-5.87c.29-1.86.6-3.4.92-4.62.32-1.4.76-2.44,1.33-3.12.57-.68,1.4-1.06,2.51-1.12.29,0,.6.08.94.25.33.16.64.38.92.65.28.27.51.55.7.85.19.3.3.57.33.8.03.74.01,1.55-.04,2.43-.06.88-.16,1.78-.31,2.72-.15.94-.32,1.88-.52,2.83-.2.95-.41,1.86-.61,2.72-.41,1.7-.72,3.15-.94,4.35s-.4,2.37-.55,3.5c-.15,1.13-.29,2.34-.44,3.64-.15,1.29-.34,2.89-.57,4.8.49-1.13.92-2.1,1.29-2.9.36-.8.69-1.51.98-2.12.29-.61.56-1.15.81-1.63.25-.48.52-.97.81-1.49.29-.52.61-1.09.96-1.72s.79-1.38,1.31-2.28c2.04-3.45,4.22-6.27,6.55-8.46,2.33-2.19,4.57-3.75,6.72-4.71,2.44-1.19,4.45-1.83,6.02-1.92.76-.03,1.66.02,2.71.13,1.05.12,2.05.34,3.01.67.96.33,1.78.75,2.47,1.27.68.52,1.03,1.15,1.03,1.9Z"/>
  <path class="cls-1" d="M620.84,176.4c0,1.52-.26,3-.79,4.44-.52,1.44-1.23,2.8-2.12,4.08-.89,1.28-1.91,2.46-3.06,3.55-1.15,1.09-2.34,2.02-3.58,2.81-1.24.79-2.48,1.4-3.73,1.83-1.25.43-2.4.65-3.45.65-1.46,0-2.42-.33-2.88-.98-.47-.65-.7-1.58-.7-2.77,0-1.1.2-1.94.61-2.52.41-.58.99-1.08,1.75-1.49.09-.03.25-.07.48-.11.23-.04.49-.07.76-.09.28-.01.55-.03.83-.04.28-.01.5-.02.68-.02.2,0,.49-.04.87-.13.38-.09.79-.22,1.22-.38.44-.16.89-.37,1.35-.62.46-.25.9-.54,1.31-.87,1.16-.95,1.99-2.01,2.47-3.19.48-1.17.72-2.22.72-3.15,0-1.16-.36-2.25-1.09-3.26-.73-1.01-1.64-2-2.75-2.97-1.11-.97-2.3-1.93-3.58-2.9-1.28-.97-2.47-1.99-3.58-3.08-1.11-1.09-2.02-2.24-2.75-3.46-.73-1.22-1.09-2.57-1.09-4.06,0-.74.09-1.53.28-2.36.19-.83.44-1.65.74-2.45s.65-1.58,1.05-2.34.81-1.45,1.24-2.07c.7-1.01,1.46-2.01,2.29-2.99s1.67-1.85,2.51-2.61c.84-.76,1.67-1.37,2.49-1.83.81-.46,1.57-.69,2.27-.69,1.98,0,2.97,1.19,2.97,3.57,0,.83-.33,1.8-.98,2.9-.65,1.1-1.43,2.11-2.34,3.03-1.4,1.37-2.62,2.54-3.67,3.5-1.05.97-2.02,1.96-2.92,2.97.67,1.01,1.4,1.93,2.18,2.77.79.83,1.61,1.64,2.47,2.41.86.77,1.73,1.53,2.62,2.28.89.74,1.77,1.52,2.64,2.32.81.77,1.59,1.55,2.34,2.34.74.79,1.4,1.61,1.99,2.45.58.85,1.05,1.73,1.4,2.65.35.92.52,1.89.52,2.9Z"/>
</svg>